<?xml version="1.0" standalone="no"?><!DOCTYPE svg PUBLIC "-//W3C//DTD SVG 1.1//EN" "http://www.w3.org/Graphics/SVG/1.1/DTD/svg11.dtd"><svg t="1636098669365" class="icon" viewBox="0 0 1024 1024" version="1.1" xmlns="http://www.w3.org/2000/svg" p-id="1600" xmlns:xlink="http://www.w3.org/1999/xlink" width="200" height="200"><defs><style type="text/css"></style></defs><path d="M512 896c-211.6 0-384-172.4-384-384s172.4-384 384-384 384 172.4 384 384-172.4 384-384 384z m0-672c-158.8 0-288 129.2-288 288s129.2 288 288 288 288-129.2 288-288-129.2-288-288-288z" p-id="1601"></path><path d="M160 850.8c-61.6 0-109.2-17.6-133.2-58.8-26.8-46-28-130.4 118.8-269.2 19.2-18.4 49.6-17.6 68 2 18.4 19.2 17.6 49.6-2 68-93.6 88.4-107.2 142-102 151.6 3.2 5.2 36.8 22 134.4 0 94-21.2 209.2-69.2 323.6-135.2s213.2-141.2 278.8-212.4c68-73.6 70-111.2 67.2-116.4-5.6-9.2-58.8-24-182.4 12.4-25.6 7.6-52-6.8-59.6-32.4s7.2-52 32.4-59.6c193.6-57.2 266-14.4 292.8 31.6 23.2 40.4 28 112.4-79.6 229.6-72 78-179.2 160-301.6 230.4-155.2 89.2-332.8 158.4-455.6 158.4z" p-id="1602"></path></svg>